HIERARCHY
ROOT root
{
	OFFSET	0	13.1	24.9
	CHANNELS 6  Xposition Yposition Zposition Xrotation Yrotation Zrotation
	JOINT spine_1
	{
		OFFSET	0	9.99999	0
		CHANNELS 3  Xrotation Yrotation Zrotation
		JOINT spine_2
		{
			OFFSET	0	112	-10
			CHANNELS 3  Xrotation Yrotation Zrotation
			JOINT spine_3
			{
				OFFSET	0	206.5	19.3
				CHANNELS 3  Xrotation Yrotation Zrotation
				JOINT spine_4
				{
					OFFSET	0	110.4	14.6
					CHANNELS 3  Xrotation Yrotation Zrotation
					JOINT neck_1
					{
						OFFSET	0	71.8	-50.3
						CHANNELS 3  Xrotation Yrotation Zrotation
						JOINT neck_2
						{
							OFFSET	0	86.2	-25.8
							CHANNELS 3  Xrotation Yrotation Zrotation
							JOINT head_ee
							{
								OFFSET	0	179.8	-8.7
								CHANNELS 3  Xrotation Yrotation Zrotation
								End Site
								{
									OFFSET	1	0	0
								}
							}
						}
					}
					JOINT left_clavicle
					{
						OFFSET	-43.2	22.4	-70.8
						CHANNELS 3  Xrotation Yrotation Zrotation
						JOINT left_shoulder
						{
							OFFSET	-93.9	-5.79999	48.7
							CHANNELS 3  Xrotation Yrotation Zrotation
							JOINT left_elbow
							{
								OFFSET	-291.4	-30.8	15.2
								CHANNELS 3  Xrotation Yrotation Zrotation
								JOINT left_lowarm_twist
								{
									OFFSET	-110.7	-3.89999	13.6
									CHANNELS 3  Xrotation Yrotation Zrotation
									JOINT left_hand
									{
										OFFSET	-110.7	-3.89999	13.6
										CHANNELS 3  Xrotation Yrotation Zrotation
										JOINT left_ee
										{
											OFFSET	-80.8	-5.10001	12.1
											CHANNELS 3  Xrotation Yrotation Zrotation
											End Site
											{
												OFFSET	1	0	0
											}
										}
									}
								}
							}
						}
					}
					JOINT right_clavicle
					{
						OFFSET	43.2	22.4	-70.8
						CHANNELS 3  Xrotation Yrotation Zrotation
						JOINT right_shoulder
						{
							OFFSET	93.9	-5.79999	48.7
							CHANNELS 3  Xrotation Yrotation Zrotation
							JOINT right_elbow
							{
								OFFSET	291.4	-30.8	15.2
								CHANNELS 3  Xrotation Yrotation Zrotation
								JOINT right_lowarm_twist
								{
									OFFSET	110.7	-3.89999	13.6
									CHANNELS 3  Xrotation Yrotation Zrotation
									JOINT right_hand
									{
										OFFSET	110.7	-3.89999	13.6
										CHANNELS 3  Xrotation Yrotation Zrotation
										JOINT right_ee
										{
											OFFSET	80.8	-5.10001	12.1
											CHANNELS 3  Xrotation Yrotation Zrotation
											End Site
											{
												OFFSET	1	0	0
											}
										}
									}
								}
							}
						}
					}
				}
			}
		}
	}
	JOINT left_hip
	{
		OFFSET	-82.8	-127.5	0.300001
		CHANNELS 3  Xrotation Yrotation Zrotation
		JOINT left_knee
		{
			OFFSET	-28.2	-396.7	2.2
			CHANNELS 3  Xrotation Yrotation Zrotation
			JOINT left_ankle
			{
				OFFSET	-11.7	-411.3	35.4
				CHANNELS 3  Xrotation Yrotation Zrotation
				JOINT left_toes
				{
					OFFSET	0	-60	-88.6
					CHANNELS 3  Xrotation Yrotation Zrotation
					JOINT left_foot_ee
					{
						OFFSET	-22.5	-16.5	-42.2
						CHANNELS 3  Xrotation Yrotation Zrotation
						End Site
						{
							OFFSET	1	0	0
						}
					}
				}
			}
		}
	}
	JOINT right_hip
	{
		OFFSET	82.8	-127.5	0.300001
		CHANNELS 3  Xrotation Yrotation Zrotation
		JOINT right_knee
		{
			OFFSET	28.2	-396.7	2.2
			CHANNELS 3  Xrotation Yrotation Zrotation
			JOINT right_ankle
			{
				OFFSET	11.7	-411.3	35.4
				CHANNELS 3  Xrotation Yrotation Zrotation
				JOINT right_toes
				{
					OFFSET	0	-60	-88.6
					CHANNELS 3  Xrotation Yrotation Zrotation
					JOINT right_foot_ee
					{
						OFFSET	22.5	-16.5	-42.2
						CHANNELS 3  Xrotation Yrotation Zrotation
						End Site
						{
							OFFSET	1	0	0
						}
					}
				}
			}
		}
	}
}
MOTION
Frames: 14
Frame Time: 0.02
2710.95007463 759.197 -1618.19568111 63.3096008036 82.7000717016 -56.8564527209 -1.69426 -0.549618 -2.91266 -1.68962 -0.363247 -2.9417 -1.66613 0.349014 -2.94342 -1.6782 -0.120014 -2.96159 -17.7652 9.10315 7.12251 -17.832 13.6263 10.0944 -0.0 0.0 -0.0 10.7287 7.20726 20.5594 1.59183 -16.742 65.32 1.45599 -35.7991 0.470282 12.5255 0.270212 -1.57403 4.40932 27.8827 38.3711 -0.0 0.0 -0.0 6.79073 -9.13548 -13.0377 -12.6465 12.1538 -59.913 0.41925 11.7329 -0.0430773 -3.74333 0.14684 -0.455307 2.59989 -29.9967 -26.5315 0.0 0.0 0.0 5.1524 0.728542 -3.259 -22.0553 0.265561 3.35328 40.0878 22.3452 -5.09643 3.31829 -0.0 -0.0 -0.0 0.0 -0.0 4.01879 2.92097 -1.6196 -48.26 1.07403 -7.11328 28.0565 -12.233 3.69617 37.0691 -0.0 -0.0 0.0 0.0 0.0 
2698.96808721 760.424 -1607.64893674 57.3958692954 82.2719251549 -51.4251533257 -1.40574 -0.426951 -2.81878 -1.40136 -0.246793 -2.84022 -1.38513 0.424178 -2.8192 -1.39622 -0.026198 -2.85079 -19.2087 8.61188 7.031 -19.2846 12.9364 10.0139 -0.0 0.0 -0.0 10.8317 6.85602 20.7998 2.02291 -16.4443 64.5191 1.51408 -36.8685 0.504697 13.9051 0.278783 -1.75003 4.15994 27.6283 36.5233 -0.0 0.0 -0.0 6.98353 -9.08125 -13.3878 -14.5316 13.9185 -59.8136 0.356521 10.0159 -0.0312417 -5.2034 0.212141 -0.630181 2.87694 -30.1034 -28.2587 0.0 0.0 0.0 3.08479 4.43989 -3.29766 -20.0446 0.295106 3.04619 41.147 22.5024 -5.19914 1.26413 -0.0 -0.0 -0.0 0.0 -0.0 7.87306 -0.551126 -1.22156 -45.855 0.880635 -6.79768 24.4156 -11.6228 3.27466 36.2862 -0.0 -0.0 0.0 0.0 0.0 
2684.35461017 763.958 -1592.38651288 53.2674938171 81.8421372903 -47.6096242623 -1.16461 -0.208354 -2.42693 -1.16133 -0.053547 -2.43526 -1.15656 0.50795 -2.38233 -1.16446 0.125447 -2.43262 -20.3926 8.43359 6.53072 -20.5139 13.0038 9.64573 -0.0 0.0 -0.0 10.8213 8.8718 20.5475 2.48554 -16.3545 63.0356 1.70097 -40.1145 0.621069 15.0412 0.282658 -1.89509 3.79306 27.0711 33.8597 -0.0 0.0 -0.0 7.07454 -9.30803 -13.5433 -16.7243 15.5156 -59.6938 0.345999 9.72608 -0.0294379 -6.57052 0.277314 -0.792388 3.37236 -30.2686 -31.4284 0.0 0.0 0.0 1.44413 6.33863 -3.57293 -15.998 0.321825 2.42601 38.6019 22.2562 -4.95231 -1.74646 0.0 0.0 -0.0 0.0 -0.0 9.6439 -2.89844 -0.408148 -41.6163 0.572781 -6.22304 21.2052 -9.78197 2.88234 34.5427 -0.0 -0.0 0.0 0.0 0.0 
2668.44721253 767.278 -1580.54320052 52.2688801563 80.9584519671 -47.0257116199 -1.13908 -0.317365 -2.16631 -1.13649 -0.178907 -2.1821 -1.12752 0.326491 -2.16495 -1.13406 -0.0194351 -2.18933 -21.3398 7.97203 5.30852 -21.5157 12.8174 8.45341 -0.0 0.0 -0.0 10.6563 9.22403 20.1883 3.33715 -17.0283 62.8877 1.82454 -42.1039 0.702325 15.664 0.28356 -1.97463 3.57188 28.0323 32.4689 -0.0 0.0 -0.0 7.2423 -8.72235 -13.8717 -18.5036 17.0375 -58.7225 0.337588 9.49399 -0.0280336 -7.56062 0.326927 -0.908881 3.76086 -30.4889 -34.0132 0.0 0.0 0.0 -2.409 9.40056 -2.25369 -12.4404 0.309107 1.8804 37.4388 22.0336 -4.8326 -4.0259 0.0 0.0 -0.0 0.0 -0.0 14.6786 -5.86683 -1.51352 -36.5834 0.263836 -5.51404 18.8688 -12.0074 2.59854 32.3487 -0.0 -0.0 0.0 0.0 0.0 
2654.43409024 767.028 -1576.70337797 44.5078368632 81.3246861076 -39.56350644 -0.945231 -0.265976 -1.97004 -0.943082 -0.140104 -1.98297 -0.936586 0.312026 -1.96328 -0.941966 -0.00188965 -1.98791 -21.9919 8.30938 5.31981 -22.2118 13.5266 8.71345 -0.0 0.0 -0.0 10.6028 11.8402 19.7522 4.50977 -17.2154 62.9085 2.17974 -47.1906 0.952186 15.7006 0.283587 -1.9793 3.08153 27.897 29.2082 -0.0 0.0 -0.0 7.36022 -8.61123 -14.0916 -19.9297 18.1666 -58.4103 0.30453 8.57887 -0.0228413 -8.15907 0.35789 -0.978877 4.15685 -30.8665 -36.7507 0.0 0.0 0.0 -4.28816 9.87211 -1.50787 -9.4877 0.272853 1.42884 38.6612 21.4365 -4.93698 -6.00366 0.0 0.0 -0.0 0.0 -0.0 17.9314 -7.16043 -0.690364 -34.4686 0.152867 -5.20868 15.1795 -15.1425 2.13496 30.7261 -0.0 -0.0 0.0 0.0 0.0 
2640.67481728 768.125 -1572.10382232 33.4828226103 80.3419878709 -28.4980630808 -0.67577 -0.242905 -1.84968 -0.673875 -0.124734 -1.86138 -0.668515 0.290869 -1.84275 -0.673254 -0.00375658 -1.86555 -22.4855 8.00695 4.61981 -22.7274 13.3122 8.00103 -0.0 0.0 -0.0 10.6854 13.6112 19.6504 5.77182 -17.6149 62.9014 2.37203 -49.5937 1.096 16.4052 0.283508 -2.0693 3.02457 28.0407 28.8641 -0.0 0.0 -0.0 7.50096 -8.38083 -14.3597 -20.9918 19.2998 -57.5256 0.309531 8.71759 -0.0235933 -9.292 0.418507 -1.1105 4.39931 -31.1062 -38.4775 0.0 0.0 0.0 -5.30397 11.9603 -1.33872 -7.21603 0.229149 1.08301 36.2821 21.7585 -4.71 -7.90645 0.0 0.0 -0.0 0.0 -0.0 19.8735 -8.43368 -0.157566 -30.868 -0.00984273 -4.68025 14.7463 -14.5914 2.07494 29.4103 -0.0 -0.0 0.0 0.0 0.0 
2627.89444445 771.173 -1575.7231699 32.7201035873 78.8742568469 -27.9085433816 -0.893796 -0.32734 -1.75663 -0.892105 -0.214916 -1.7739 -0.884072 0.190177 -1.77672 -0.888465 -0.0927627 -1.78445 -22.714 7.80071 4.34283 -22.9564 13.0592 7.68043 -0.0 0.0 -0.0 10.5977 14.4682 19.3635 7.62186 -17.898 63.0317 2.49756 -51.0445 1.19261 14.5172 0.281228 -1.82818 2.20606 28.3605 23.8178 -0.0 0.0 -0.0 7.88859 -7.55202 -15.1163 -22.4001 20.1144 -56.716 0.319967 9.00678 -0.025201 -9.87981 0.450982 -1.17831 4.88886 -31.436 -42.1093 0.0 0.0 0.0 -5.57991 10.9281 -1.37987 -9.2014 0.2681 1.38516 37.6716 19.9688 -4.80692 -9.26724 0.0 0.0 -0.0 0.0 -0.0 23.2052 -8.89331 0.114368 -25.253 -0.196426 -3.83906 11.2078 -12.8421 1.59245 27.7007 -0.0 -0.0 0.0 0.0 0.0 
2609.39952357 762.607 -1575.26049331 24.0994652689 78.1679049503 -20.0527184202 -0.635772 -0.129976 -1.66554 -0.634229 -0.0237448 -1.67043 -0.63258 0.346027 -1.63438 -0.636298 0.0836017 -1.66851 -23.4253 8.5279 7.19559 -23.5923 13.2461 10.7501 -0.0 0.0 -0.0 9.32209 14.5386 17.1106 10.7696 -17.88 66.6367 2.81552 -54.3498 1.44564 14.6941 0.281779 -1.85076 1.56704 29.5287 20.3032 -0.0 0.0 -0.0 8.47454 -5.14478 -16.3487 -25.0254 18.6229 -56.8286 0.327038 9.20245 -0.0263199 -10.3649 0.47831 -1.23403 5.27237 -31.7145 -45.131 0.0 0.0 0.0 -4.76144 10.2399 -0.856591 -10.4299 0.28695 1.57272 38.9471 18.5613 -4.89908 -11.8118 0.0 0.0 -0.0 0.0 -0.0 25.7839 -9.12065 0.341467 -11.5577 -0.300709 -1.74523 4.92264 -5.15915 0.712085 22.0438 -0.0 -0.0 0.0 0.0 0.0 
2608.30560645 762.607 -1582.12067071 22.8201496264 77.5332547924 -18.7441148457 -0.635772 -0.129976 -1.66554 -0.634229 -0.0237448 -1.67043 -0.63258 0.346027 -1.63438 -0.636298 0.0836017 -1.66851 -23.4253 8.5279 7.19559 -23.5923 13.2461 10.7501 -0.0 0.0 -0.0 9.32209 14.5386 17.1106 10.7696 -17.88 66.6367 2.81552 -54.3498 1.44564 14.6941 0.281779 -1.85076 1.56704 29.5287 20.3032 -0.0 0.0 -0.0 8.47454 -5.14478 -16.3487 -25.0254 18.6229 -56.8286 0.327038 9.20245 -0.0263199 -10.3649 0.47831 -1.23403 5.27237 -31.7145 -45.131 0.0 0.0 0.0 -4.76144 10.2399 -0.856591 -10.4299 0.28695 1.57272 38.9471 18.5613 -4.89908 -11.8118 0.0 0.0 -0.0 0.0 -0.0 25.7839 -9.12065 0.341467 -11.5577 -0.300709 -1.74523 4.92264 -5.15915 0.712085 22.0438 -0.0 -0.0 0.0 0.0 0.0 
2572.39615472 757.055 -1575.84042523 20.477866983 79.0602900306 -18.7081593805 -0.994619 -0.170312 -1.11068 -0.993938 -0.0992962 -1.11927 -0.991452 0.157453 -1.11258 -0.993178 -0.0202222 -1.12348 -21.3277 10.0174 9.69149 -21.3874 14.6584 13.3808 -0.0 0.0 -0.0 8.29402 15.0363 15.2922 14.0334 -17.332 68.7314 3.28949 -58.4501 1.84067 14.9646 0.282486 -1.8853 0.678636 28.2121 14.8661 -0.0 0.0 -0.0 9.72695 -3.989 -18.8673 -28.2951 19.5799 -55.3651 0.427969 11.9699 -0.0448679 -11.2904 0.53175 -1.33969 5.61301 -32.151 -47.9634 0.0 0.0 0.0 -3.76179 9.66137 0.919932 -17.5314 0.316856 2.66121 41.4223 16.7205 -5.08771 -15.0728 0.0 0.0 -0.0 0.0 -0.0 27.2214 -9.23709 -0.836851 -1.32184 -0.0521659 -0.196143 -3.54968 6.86399 -0.543041 17.6528 -0.0 -0.0 0.0 0.0 0.0 
2571.28794959 757.055 -1583.31616443 19.2706855097 78.394642416 -17.4772540083 -0.994619 -0.170312 -1.11068 -0.993938 -0.0992962 -1.11927 -0.991452 0.157453 -1.11258 -0.993178 -0.0202222 -1.12348 -21.3277 10.0174 9.69149 -21.3874 14.6584 13.3808 -0.0 0.0 -0.0 8.29402 15.0363 15.2922 14.0334 -17.332 68.7314 3.28949 -58.4501 1.84067 14.9646 0.282486 -1.8853 0.678636 28.2121 14.8661 -0.0 0.0 -0.0 9.72695 -3.989 -18.8673 -28.2951 19.5799 -55.3651 0.427969 11.9699 -0.0448679 -11.2904 0.53175 -1.33969 5.61301 -32.151 -47.9634 0.0 0.0 0.0 -3.76179 9.66137 0.919932 -17.5314 0.316856 2.66121 41.4223 16.7205 -5.08771 -15.0728 0.0 0.0 -0.0 0.0 -0.0 27.2214 -9.23709 -0.836851 -1.32184 -0.0521659 -0.196143 -3.54968 6.86399 -0.543041 17.6528 -0.0 -0.0 0.0 0.0 0.0 
2559.81003928 754.188 -1584.97146744 18.1573632292 78.2054130897 -16.7905975663 -1.04405 -0.27097 -1.11107 -1.04339 -0.199726 -1.12606 -1.03884 0.062114 -1.14194 -1.04064 -0.119002 -1.13742 -22.1505 10.1394 10.1766 -22.2102 14.8125 14.0223 -0.0 0.0 -0.0 7.7795 14.5185 14.4648 14.2566 -17.4004 68.9751 3.26913 -58.2914 1.82334 14.6708 0.28171 -1.84779 0.380369 28.7634 13.3671 -0.0 0.0 -0.0 9.96859 -3.12369 -19.4091 -28.6079 19.5061 -55.1133 0.451837 12.6166 -0.0499499 -11.1655 0.524436 -1.32548 5.72343 -32.2762 -48.9204 0.0 0.0 0.0 -3.50484 10.6941 1.21579 -19.3107 0.303203 2.93387 41.1238 16.7479 -5.06199 -15.4941 0.0 0.0 -0.0 0.0 -0.0 27.1417 -8.96623 -0.869304 1.04983 0.0446522 0.154911 -6.78863 9.66882 -1.06086 16.8227 -0.0 -0.0 0.0 0.0 0.0 
2505.12476406 750.53 -1583.58886749 19.3365309236 78.4758283259 -18.3224710202 -0.98446 -0.177188 -1.10243 -0.98379 -0.106683 -1.11147 -0.981178 0.148288 -1.10669 -0.982887 -0.0283421 -1.11622 -19.4584 9.79845 7.96066 -19.5679 14.7837 11.3988 -0.0 0.0 -0.0 7.55486 13.1008 14.1856 10.1566 -16.6763 69.2987 3.3803 -59.1407 1.91834 11.845 0.264426 -1.48731 -0.0782142 27.7561 10.4745 -0.0 0.0 -0.0 9.92735 -1.46112 -19.4288 -29.0634 18.867 -56.0477 0.587649 16.2306 -0.0837959 -10.0513 0.460588 -1.19804 6.4298 -32.8509 -55.7065 0.0 0.0 0.0 -5.4413 9.64085 1.40902 -25.1701 0.198561 3.82651 39.6814 19.328 -4.98378 -16.4297 0.0 0.0 -0.0 0.0 -0.0 27.5181 -8.51093 -0.223568 -7.43233 -0.2339 -1.11586 -17.3231 24.2441 -3.10059 16.2689 -0.0 -0.0 0.0 0.0 0.0 
2503.94172957 750.53 -1593.43794613 18.0622446788 77.6809468745 -17.0201277025 -0.98446 -0.177188 -1.10243 -0.98379 -0.106683 -1.11147 -0.981178 0.148288 -1.10669 -0.982887 -0.0283421 -1.11622 -19.4584 9.79845 7.96066 -19.5679 14.7837 11.3988 -0.0 0.0 -0.0 7.55486 13.1008 14.1856 10.1566 -16.6763 69.2987 3.3803 -59.1407 1.91834 11.845 0.264426 -1.48731 -0.0782142 27.7561 10.4745 -0.0 0.0 -0.0 9.92735 -1.46112 -19.4288 -29.0634 18.867 -56.0477 0.587649 16.2306 -0.0837959 -10.0513 0.460588 -1.19804 6.4298 -32.8509 -55.7065 0.0 0.0 0.0 -5.4413 9.64085 1.40902 -25.1701 0.198561 3.82651 39.6814 19.328 -4.98378 -16.4297 0.0 0.0 -0.0 0.0 -0.0 27.5181 -8.51093 -0.223568 -7.43233 -0.2339 -1.11586 -17.3231 24.2441 -3.10059 16.2689 -0.0 -0.0 0.0 0.0 0.0 
